<svg width="302" height="276" viewBox="0 0 302 276" fill="none" xmlns="http://www.w3.org/2000/svg">
<rect width="302" height="275.181" rx="30" fill="#F5F5F7"/>
<rect width="302" height="142" rx="30" fill="#1D1D1F"/>
<path d="M206.527 105.992C186.418 105.992 173.902 92.5391 173.902 71.0234V70.9297C173.902 49.4141 186.512 36.0078 206.527 36.0078C226.59 36.0078 239.152 49.4609 239.152 70.9297V71.0234C239.152 92.5391 226.637 105.992 206.527 105.992ZM206.527 93.9922C217.777 93.9922 224.715 85.0391 224.715 71.0234V70.9297C224.715 56.8203 217.637 48.0078 206.527 48.0078C195.465 48.0078 188.34 56.7734 188.34 70.9297V71.0234C188.34 85.1797 195.418 93.9922 206.527 93.9922Z" fill="white"/>
<path d="M118.351 104.82V37.1797H146.289C161.476 37.1797 170.476 45.2422 170.476 58.8359V58.9297C170.476 67.8359 165.742 75.2422 158.242 78.1953L172.492 104.82H156.461L143.851 80.3047H132.508V104.82H118.351ZM132.508 69.5703H144.742C151.773 69.5703 155.992 65.5859 155.992 58.9297V58.8359C155.992 52.3672 151.539 48.2422 144.555 48.2422H132.508V69.5703Z" fill="white"/>
<path d="M62.8478 104.82V37.1797H90.0353C104.285 37.1797 113.801 46.3672 113.801 60.2891V60.3828C113.801 74.3047 104.285 83.4922 90.0353 83.4922H77.004V104.82H62.8478ZM86.5665 48.3828H77.004V72.4297H86.5665C94.6759 72.4297 99.4572 68.1172 99.4572 60.4297V60.3359C99.4572 52.6484 94.6759 48.3828 86.5665 48.3828Z" fill="white"/>
<path d="M241.185 241.744V185.775H221.638V174.103H274.935V185.775H255.342V241.744H241.185Z" fill="#1D1D1F"/>
<path d="M192.666 242.916C172.885 242.916 160.463 229.697 160.463 207.9V207.853C160.463 186.056 172.932 172.931 192.666 172.931C209.072 172.931 220.838 183.291 222.15 197.634L222.197 198.056H208.416L208.228 197.259C206.635 189.806 201.103 184.931 192.666 184.931C181.838 184.931 174.9 193.65 174.9 207.806V207.853C174.9 222.103 181.838 230.916 192.666 230.916C200.822 230.916 206.541 226.228 208.369 218.212L208.463 217.744H222.244L222.197 218.259C220.885 232.65 209.025 242.916 192.666 242.916Z" fill="#1D1D1F"/>
<path d="M126.803 242.916C109.459 242.916 98.4435 232.884 98.4435 217.837V174.103H112.6V216.572C112.6 225.337 117.709 230.916 126.803 230.916C135.897 230.916 140.959 225.337 140.959 216.572V174.103H155.115V217.837C155.115 232.837 144.24 242.916 126.803 242.916Z" fill="#1D1D1F"/>
<path d="M35.0647 241.744V174.103H60.8928C81.1428 174.103 93.1428 186.15 93.1428 207.572V207.666C93.1428 229.134 81.1897 241.744 60.8928 241.744H35.0647ZM49.2209 230.025H59.2053C71.8616 230.025 78.7053 222.337 78.7053 207.712V207.619C78.7053 193.509 71.6272 185.775 59.2053 185.775H49.2209V230.025Z" fill="#1D1D1F"/>
</svg>
