<svg width="569" height="142" viewBox="0 0 569 142" fill="none" xmlns="http://www.w3.org/2000/svg">
<rect x="144.384" width="423.797" height="141.843" rx="30" fill="#F5F5F7"/>
<rect width="265.405" height="141.843" rx="30" fill="#1D1D1F"/>
<path d="M188.23 105.914C168.12 105.914 155.605 92.4604 155.605 70.9448V70.8511C155.605 49.3354 168.214 35.9292 188.23 35.9292C208.292 35.9292 220.855 49.3823 220.855 70.8511V70.9448C220.855 92.4604 208.339 105.914 188.23 105.914ZM188.23 93.9136C199.48 93.9136 206.417 84.9604 206.417 70.9448V70.8511C206.417 56.7417 199.339 47.9292 188.23 47.9292C177.167 47.9292 170.042 56.6948 170.042 70.8511V70.9448C170.042 85.1011 177.12 93.9136 188.23 93.9136Z" fill="white"/>
<path d="M100.054 104.742V37.1011H127.992C143.179 37.1011 152.179 45.1636 152.179 58.7573V58.8511C152.179 67.7573 147.445 75.1636 139.945 78.1167L154.195 104.742H138.163L125.554 80.2261H114.21V104.742H100.054ZM114.21 69.4917H126.445C133.476 69.4917 137.695 65.5073 137.695 58.8511V58.7573C137.695 52.2886 133.242 48.1636 126.257 48.1636H114.21V69.4917Z" fill="white"/>
<path d="M44.5503 104.742V37.1011H71.7378C85.9878 37.1011 95.5034 46.2886 95.5034 60.2104V60.3042C95.5034 74.2261 85.9878 83.4136 71.7378 83.4136H58.7065V104.742H44.5503ZM68.269 48.3042H58.7065V72.3511H68.269C76.3784 72.3511 81.1597 68.0386 81.1597 60.3511V60.2573C81.1597 52.5698 76.3784 48.3042 68.269 48.3042Z" fill="white"/>
<path d="M500.839 105.914V49.9448H481.292V38.2729H534.589V49.9448H514.995V105.914H500.839Z" fill="#1D1D1F"/>
<path d="M452.319 107.085C432.538 107.085 420.116 93.8667 420.116 72.0698V72.0229C420.116 50.2261 432.585 37.1011 452.319 37.1011C468.726 37.1011 480.491 47.4604 481.804 61.8042L481.851 62.2261H468.069L467.882 61.4292C466.288 53.9761 460.757 49.1011 452.319 49.1011C441.491 49.1011 434.554 57.8198 434.554 71.9761V72.0229C434.554 86.2729 441.491 95.0854 452.319 95.0854C460.476 95.0854 466.194 90.3979 468.023 82.3823L468.116 81.9136H481.898L481.851 82.4292C480.538 96.8198 468.679 107.085 452.319 107.085Z" fill="#1D1D1F"/>
<path d="M386.456 107.085C369.113 107.085 358.097 97.0542 358.097 82.0073V38.2729H372.253V80.7417C372.253 89.5073 377.363 95.0854 386.456 95.0854C395.55 95.0854 400.613 89.5073 400.613 80.7417V38.2729H414.769V82.0073C414.769 97.0073 403.894 107.085 386.456 107.085Z" fill="#1D1D1F"/>
<path d="M294.718 105.914V38.2729H320.546C340.796 38.2729 352.796 50.3198 352.796 71.7417V71.8354C352.796 93.3042 340.843 105.914 320.546 105.914H294.718ZM308.874 94.1948H318.859C331.515 94.1948 338.359 86.5073 338.359 71.8823V71.7886C338.359 57.6792 331.281 49.9448 318.859 49.9448H308.874V94.1948Z" fill="#1D1D1F"/>
</svg>
